<svg width="800" height="800" xmlns="http://www.w3.org/2000/svg" xmlns:xlink="http://www.w3.org/1999/xlink">
	<defs>
		<rect id="a" x="0" y="0" width="800" height="800" rx="400"/>
	</defs>
	<g fill="none" fill-rule="evenodd">
		<mask id="b" fill="#fff">
			<use xlink:href="#a"/>
		</mask>
		<rect fill="#fb7185" stroke="#000" stroke-width="16" x="8" y="8" width="784" height="784" rx="392"/>
		<g mask="url(#b)">
			<path d="M609.529 465.003c-2.153-18.915.633-58.451.82-60.853 1.18-15.185-5.935-75.148-19.385-69.623-22.562-17.861-52.613-21.805-80.713-23.69-58.368-3.913-120.46 5.072-165.53 44.352-22.289 20.399-43.988 50.068-42.244 80.96-20.25 29.282-48.8 69.449-23.568 103.682 8.576 10.937 22.208 15.01 32.982 23.293 21.672 17.48 35.268 42.566 57.145 59.942 57.96 52.083 156.378 62.963 213.324 3.723 44.035-42.904 36.915-107.09 29.169-161.786-5.207-36.773 2.2 36.901-2 0Z" fill="#FFF"/>
			<path d="M432.28 230.625c15.61-3.15 31.639-5.11 47.58-4.52l1.229.048c11.994.48 27.184 1.54 37.647 8.514.602-.604 1.57-.914 2.448-.495 12.434 5.935 26.11 10.226 39.202 14.49 13.032 4.243 26.552 7.044 40.211 8.173 5.139.425 9.537 5.974 6.283 10.951a219.086 219.086 0 0 0-2.279 3.585c1.256-.13 2.512-.266 3.768-.393 4.133-.416 8.262 3.995 8.017 8.02a74.223 74.223 0 0 1-.83 7.502c1.574-.033 3.139.203 4.651.842 7.656 3.233 7.123 12.352 6.55 19.29-.794 9.628-4.395 19.826-11.081 27.032 4.992 5.185 8.526 11.377 10.634 18.731 1.529 5.37 2.38 11.09 1.96 16.68l-.134 1.674c-.52 6.066-1.552 12.782-5.916 17.146-2.24 2.25-5 3.07-7.631 2.81 1.591 13.98 2.611 28.04 3.571 42.05l.45 6.696c2.142 32.38 3.75 64.97 3.33 97.404-.391 30.31-6.38 59.73-24.97 84.34-16.931 22.41-41.24 38.93-68.74 45.21-14.82 3.39-29.95 3.63-44.95 1.47-7.271-1.05-14.59-2.66-21.491-5.2-7.639-2.82-13.129-6.97-18.269-13.19-2.431-2.95-1.261-9.23 3.58-8.64 7.321.888 14.005 1.958 21.024 4.123l1.005.317c6.991 2.24 14.231 3.91 21.54 4.62 14.971 1.45 30.17-.01 44.511-4.55 23.35-7.4 43.46-23.89 56.35-44.61 15.3-24.56 17.03-52.44 16.809-80.68-.237-30.988-1.245-61.995-2.89-92.951l-.28-5.159c-.87-15.93-1.71-31.87-2.449-47.81-.23-5-.58-10.04-1.211-15.03-5.769-3.38-10.939-8.04-14.309-13.79-6.77 2.8-13.89 4.82-20.441 6.43-15.174 3.732-30.928 4.638-46.373 2.301a137.059 137.059 0 0 1-12.729 4.536 284.927 284.927 0 0 1-3.497 1.523c-10.401 4.45-20.951 8.22-31.93 10.98l-2.697.673c-5.778 1.424-12.054 2.827-18.203 3.267-1.01.39-2.1.72-3.291 1.01a53.78 53.78 0 0 1-17.149 1.31c-5.591-.47-9.631-6.12-6.551-11.41 2.25-3.86 4.521-7.71 6.811-11.55-7.97 3.32-16.2 6.08-24.5 8.42-8.38 2.36-16.88 4.35-25.391 6.18-4.55.97-9.119 1.83-13.659 2.8-3.25.69-8.24 1.05-10.891 3.19-2.929 2.35-3.759 7.83-4.87 11.21-1.46 4.39-2.83 8.8-4.08 13.26a274.297 274.297 0 0 0-6.109 27.05c-1.58 9.13-2.641 18.35-3.231 27.6-.589 9.24-.33 18.54-1.279 27.74-.511 4.88-5.75 7.39-9.62 3.98-.454-.4-.912-.804-1.365-1.213l-.675-.617c-3.311-3-6.521-6.18-9.17-9.76-.48-.66-.94-1.35-1.37-2.05-.07 0-.13-.02-.2-.07l-.735-.553c-8.087-6.02-21.599-13.868-29.485-3.867-2.513 3.186-3.8 7.243-4.867 11.156l-1.874 7.005c-1.212 4.572-2.353 9.17-3.02 13.85-1.51 10.48-.75 22.56 6.461 30.96 2.88 3.36 6.85 5.76 11.279 6.39 2.471.34 4.911-.08 7.361-.39 2.49-.31 4.889.19 7.38-.05 3.96-.39 5.69 4.35 4.21 7.33-.8 1.6-1.741 2.98-2.81 4.15.859.74 1.68 1.54 2.47 2.38 2.34.75 4.439 2.36 6.01 4.49 1.27 1.72 1.929 3.59 2.04 5.56.139.49.259.99.37 1.5l2.145 3.481c.472.764.942 1.518 1.414 2.258 5.46 8.6 11.521 15.88 19.051 22.74 7.25 6.6 15.119 12.51 21.93 19.59l.802.84c6.35 6.692 13.043 14.791 10.558 24.52-.64 2.5-4.131 4.3-6.41 2.61-7.33-5.44-11.021-14.06-17.24-20.66-6.401-6.8-13.491-12.91-19.91-19.69-6.071-6.4-10.861-13.65-14.47-21.63-1.441 1.59-3.54 2.72-6.45 3.16-5 .75-9.661-2.18-11.84-6.51-1.401.62-2.83 1.18-4.271 1.62-7.58 2.32-12.349-6.11-9.489-12.34 1.529-3.34 3.439-6.24 5.81-8.68-7.411-1.02-14.951-4.85-19.821-9.63-12.219-12.01-13.899-30.06-11.149-46.11 1.46-8.51 3.979-17.12 7.25-25.11.569-1.39 1.18-2.79 1.849-4.17-.37-.01-.75-.17-.99-.48-2.21-3.02-4.899-5.49-6.54-8.87-1.51-3.1-3.189-6.24-4.38-9.47-2.449-6.61-3.649-14.07-4.449-21.06-1.65-14.31-1.011-28.53 1.18-42.75 3.729-24.22 12.737-47.398 26.008-67.736a11.561 11.561 0 0 1-2.06-1.38l-.319-.278-.518-.468c-3.787-3.427-3.46-9.85 0-13.32l1.093-1.096c1.383-1.375 2.577-2.464 4.812-3.96.33-.222.667-.43 1.008-.624-1.17-2.162-1.576-4.69-.761-7.479 2.84-9.716 16.82-9.372 25.681-5.135 9.803-8.749 20.673-16.344 32.455-22.494 28.061-14.64 59.79-24.85 90.771-31.09Zm-145.05 255.9c5.24-1.71 12.2 1.88 16.91 4.04 5.97 2.74 11.05 6.79 15.97 11.07 2.45 2.14 2.89 5.64 2.28 8.63-.06.3-.12.61-.19.92-.65 3.19-4.21 5.7-7.36 5.61-6.59-.18-9.73-5.87-13.46-10.69-.44.78-.99 1.5-1.67 2.04l-.46.36c-1.549 1.179-3.255 2.121-5.3 2.03a9.853 9.853 0 0 1-4.12-1.11c-3.2-1.69-4.61-5.83-3.74-9.2.54-2.12 1.78-3.78 3.4-4.93l-.605-.413c-1.292-.9-2.47-1.847-3.388-3.246l-.208-.33h.08c-1-1.72-.349-4.06 1.861-4.78Z" fill="#000"/>
			<path d="M509.587 587.927c-6.723-2.743-12.72-7.317-17.106-13.16-1.524-2.032-1.92-4.177-1.6-6.14.36-2.206 1.665-4.205 3.445-5.546 1.786-1.346 4.019-2.01 6.178-1.67 1.877.293 3.744 1.32 5.223 3.45l.308.427c2.607 3.527 6.005 6.42 9.875 8.286 3.731 1.798 7.904 2.637 12.222 2.149 8.224-.929 13.892-5.377 19.917-11.416a157.72 157.72 0 0 0 2.245-2.348 3.53 3.53 0 0 1 1.863-1.434 4.008 4.008 0 0 1 2.57.037c.81.283 1.535.819 2.02 1.533.462.678.724 1.516.64 2.48-.552 6.258-3.825 11.844-8.473 16.23-5.162 4.872-12.006 8.242-18.448 9.424-7.098 1.302-14.33.37-20.88-2.302Zm24.227-96.56c7.552 4.59 19.058 15.293 10.934 26.673-9.562 10.033-23.33-1.471-30.114-6.674-6.29-4.032-13.359 6.339-7.522 11.047 49.024 36.295 68.919-29.846 30.522-36.443-4.228-.727-5.798 3.977-3.82 5.397Zm-87.85-42.22c.834-10.357 16.606-12.709 18.175-2.46 1.405 9.18-.249 17.612-4.384 25.877-3.95 7.896-13.881 4.213-14.632-2.977-1.007-9.638.321-13.998.84-20.44Zm120.063-4.585c2.199-2.88 5.374-4.846 9.178-3.735 11.885 3.473 8.382 20.346 4.208 28.559-2.268 4.46-9.6 5.59-12.912 1.664-5.4-6.404-7.986-19.193-1.121-25.501.186-.326.393-.655.647-.987Zm-106.44-40.731 1.878-.33c5.808-1.004 13.03-1.969 17.138 2.7 2.179 2.477 2.929 7.079 0 9.449-5.152 4.17-10.848 2.554-17.022 2.907a67.731 67.731 0 0 0-14.88 2.535c-10.751 3.073-19.512 8.683-28.695 14.843-1.205.808-2.435-.733-1.86-1.86 5.3-10.383 15.574-18.912 25.864-24.111 5.492-2.775 11.502-5.077 17.578-6.133Zm95.606-4.652 1.437.294c15.637 3.27 35.953 9.798 43.358 25.158.283 2.172-.016 2.637-.258 2.941l-.08.102c-.2.26-.36.617-1.301.913a36.427 36.427 0 0 1-.792-.198c-3.394-.89-6.08-2.115-8.68-3.387l-2.819-1.389c-3.27-1.603-6.57-3.148-10.066-4.29-7.462-2.433-15.138-4.148-22.932-5.063-1.69-.198-3.316-.769-4.6-1.746a6.91 6.91 0 0 1-2.573-3.918c-.55-2.21-.392-3.882.793-5.875a7.443 7.443 0 0 1 3.631-3.13c1.493-.607 3.192-.75 4.882-.412Z" fill="#000"/>
			<path d="M444.725 594.193c8.096-18.968 25.766-32.907 46.111-38.004 14.94-3.733 30.62-3.614 45.85-2.132 7.979.77 16.537 1.402 24.057 4.366 6.422 2.531 11.655 7.316 15.59 12.933 4.684 6.656 7.87 14.275 10.106 22.083.318 1.11.617 2.228.895 3.353-.973 5.89-3.038 10.905-8.495 14.61-5.324 3.616-11.678 5.096-18.012 5.621a28.327 28.327 0 0 1-1.771-.919c-9.87-5.65-16.817-19.002-29.274-17.195-11.118 1.613-18.436 15.601-25.047 23.804-21.222 2.473-42.428-3.904-59.695-16.039-.877-4.153-.928-8.342-.315-12.481m157.033-14.389a81.81 81.81 0 0 0-6.37-13.724c-8.38-14.375-21.242-25.828-36.512-32.375-36.122-15.466-82.86-4.564-112.031 20.802-9.965 8.672-20.04 21.414-23.087 35.12-.91.181-1.77.655-2.476 1.321-21.076-13.269-42.78-26.036-59.764-44.43-12.333-13.363-20.912-29.18-26.165-46.559-.43-1.43-2.736-1.221-2.666.361l.06 1.11c-.22-.68-1.259-.33-1.339.331-2.826 21.113-6.361 43.496-3.106 64.72 1.948 12.663 7.7 21.934 15.39 31.944 8.239 10.73 17.567 20.711 27.104 30.283 6.052 6.075 12.373 13.083 19.784 17.537 8.618 5.176 18.395 9.111 27.593 13.104 9.357 4.075 18.855 7.839 28.532 11.102 19.344 6.547 39.338 11.072 59.68 13.054 16.29 1.582 34.904 3.305 50.514-2.823 11.964-4.695 21.62-13.183 29.28-23.395 8.34-11.122 14.932-23.79 18.576-37.15 3.787-13.876-2.2-38.095-2.997-40.333" fill="#000"/>
		</g>
	</g>
</svg>
